<svg xmlns="http://www.w3.org/2000/svg" xmlns:xlink="http://www.w3.org/1999/xlink" width="450" zoomAndPan="magnify" viewBox="0 0 350 350" height="350" preserveAspectRatio="xMidYMid meet" version="1.0"><defs><g/></defs><rect x="-37.5" width="150" fill="#ffffff" y="-37.499999" height="150.999989" fill-opacity="1"/><rect x="-37.5" width="150" fill="#ffffff" y="-37.499999" height="150" fill-opacity="1"/><g fill="#ffbd59" fill-opacity="1"><g transform="translate(38.408051, 203.348101)"><g><path d="M 52.1875 -22.460938 C 51.523438 -22.660156 50.789062 -22.328125 50.589844 -21.59375 C 48.257812 -12.996094 42.257812 -5.464844 34.792969 -3.132812 C 39.324219 -11.53125 41.65625 -22.796875 41.65625 -33.328125 C 41.65625 -47.058594 37.925781 -59.054688 21.195312 -59.054688 C 8.132812 -59.054688 -3.664062 -41.390625 3.734375 -22.261719 C 2.667969 -19.863281 1.734375 -17.0625 1.199219 -14.863281 C -2.265625 -0.265625 1.800781 10.132812 15.796875 10.132812 C 22.996094 10.132812 28.660156 6.132812 32.859375 -0.0664062 C 42.457031 -1.734375 50.457031 -10.664062 53.1875 -20.796875 C 53.386719 -21.527344 52.921875 -22.261719 52.1875 -22.460938 Z M 21.195312 -56.386719 C 35.792969 -56.386719 38.992188 -45.722656 38.992188 -33.328125 C 38.992188 -23.195312 36.390625 -10.730469 31.394531 -2.464844 C 24.59375 -1.933594 16.929688 -5.597656 9.664062 -16.261719 C 11.0625 -20.664062 12.929688 -23.59375 13.664062 -24.726562 C 16.0625 -28.328125 9.53125 -29.261719 6.464844 -26.59375 C 6.066406 -26.328125 5.730469 -25.859375 5.332031 -25.328125 C 0.667969 -41.191406 10.464844 -56.386719 21.195312 -56.386719 Z M 18.261719 6.597656 C 8.664062 6.730469 6.53125 -2.734375 8.796875 -13.0625 C 15.464844 -3.597656 22.796875 0.199219 29.527344 0.265625 C 26.460938 4.132812 22.726562 6.597656 18.261719 6.597656 Z M 18.261719 6.597656 "/></g></g></g><g fill="#ffbd59" fill-opacity="1"><g transform="translate(88.258123, 203.348101)"><g><path d="M 11.199219 -30.125 L 13.597656 -42.722656 C 13.863281 -44.058594 7.796875 -44.789062 8 -41.859375 L 8.796875 -30.328125 C 8.863281 -29.527344 10.929688 -28.859375 11.199219 -30.125 Z M 11.199219 -30.125 "/></g></g></g><g fill="#ffbd59" fill-opacity="1"><g transform="translate(109.850937, 203.348101)"><g><path d="M 42.722656 22.726562 C 52.65625 22.726562 59.121094 14.796875 60.054688 4.066406 C 60.386719 -1 59.585938 -6.066406 57.789062 -10.597656 C 63.585938 -12.996094 68.253906 -16.0625 69.183594 -20.730469 C 69.320312 -21.460938 68.851562 -22.195312 68.117188 -22.328125 C 67.453125 -22.460938 66.71875 -21.996094 66.585938 -21.261719 C 65.917969 -17.996094 61.320312 -14.996094 56.65625 -12.996094 C 54.320312 -17.261719 50.722656 -20.929688 46.457031 -22.660156 C 55.921875 -25.195312 62.320312 -33.527344 62.320312 -43.390625 C 62.320312 -53.921875 56.519531 -61.988281 46.789062 -61.988281 C 37.390625 -61.988281 30.660156 -47.324219 26.261719 -32.992188 C 26.925781 -48.390625 23.460938 -60.253906 10.332031 -60.253906 C -7.664062 -60.253906 2.667969 -25.59375 5.597656 -20.195312 C 5.933594 -19.597656 6.796875 -19.261719 7.398438 -19.730469 C 8 -20.128906 8.199219 -20.929688 7.933594 -21.527344 C 3.398438 -29.660156 -1.332031 -56.789062 8 -56.789062 C 17.863281 -56.789062 18.996094 -42.191406 17.996094 -29.660156 C 17.53125 -23.660156 16.929688 -19.929688 13.597656 -1.667969 C 12.796875 2.464844 20.863281 3 22.128906 -3.867188 C 26.128906 -28.992188 33.925781 -57.253906 46.789062 -57.253906 C 50.121094 -57.253906 53.921875 -51.390625 53.921875 -45.457031 C 53.921875 -33.726562 47.324219 -24.394531 37.726562 -24.394531 C 36.992188 -24.394531 36.390625 -23.796875 36.390625 -23.0625 C 36.390625 -22.328125 36.925781 -21.730469 37.660156 -21.730469 C 43.390625 -21.195312 47.589844 -17.128906 50.054688 -10.332031 C 36.457031 -4.867188 25.0625 0.199219 26.996094 10.53125 C 28.0625 17.128906 35.257812 22.726562 42.722656 22.726562 Z M 40.257812 19.527344 C 36.058594 19.664062 30.59375 15.128906 29.660156 10.332031 C 27.660156 1.398438 39.992188 -3.597656 50.921875 -7.796875 C 52.1875 -2.332031 52.523438 1 51.789062 5.933594 C 50.789062 12.730469 46.191406 19.394531 40.257812 19.527344 Z M 40.257812 19.527344 "/></g></g></g><g fill="#ffbd59" fill-opacity="1"><g transform="translate(175.762332, 203.348101)"><g><path d="M 17.464844 10.132812 C 25.460938 10.132812 32.058594 -5.796875 36.125 -20.59375 C 36.324219 -21.328125 35.792969 -21.660156 35.058594 -21.863281 C 34.324219 -22.0625 33.792969 -22.128906 33.59375 -21.394531 C 29.859375 -7.597656 23.726562 6.066406 18.664062 6.066406 C 15.929688 6.066406 19.796875 -12.929688 22.863281 -24.929688 C 23.394531 -26.726562 22.195312 -27.527344 20.59375 -27.527344 C 15.929688 -27.527344 10.066406 -23.996094 4.332031 -23.59375 C 8 -33.191406 9.398438 -43.589844 1.734375 -43.589844 L 1.667969 -43.589844 C -3.53125 -43.589844 -6.53125 -37.257812 -6.53125 -31.59375 C -6.53125 -25.792969 -3.53125 -20.863281 2.265625 -20.863281 C 6.464844 -20.863281 10.464844 -21.796875 14.261719 -23.128906 C 10.929688 -10.53125 6.933594 10.132812 17.464844 10.132812 Z M 1.398438 -23.59375 C -2.199219 -24.0625 -3.867188 -27.660156 -3.867188 -31.59375 C -3.867188 -35.859375 -1.800781 -40.925781 1.667969 -40.925781 L 1.734375 -40.925781 C 6.933594 -40.925781 4.464844 -30.859375 1.398438 -23.59375 Z M 1.398438 -23.59375 "/></g></g></g><g fill="#ffbd59" fill-opacity="1"><g transform="translate(208.618066, 203.348101)"><g><path d="M 19.328125 10.664062 C 24.328125 10.664062 27.925781 2.597656 30.527344 -5 C 31.925781 -9.066406 33.660156 -16.796875 34.660156 -20.796875 C 34.792969 -21.328125 34.925781 -21.929688 33.59375 -22.328125 C 32.328125 -22.59375 32.191406 -21.996094 32.058594 -21.394531 C 31.058594 -16.996094 29.261719 -9.464844 27.992188 -5.796875 C 26.792969 -2.265625 24.328125 4.332031 22.929688 4.332031 C 20.328125 4.332031 22.660156 -12.664062 24.460938 -20.664062 C 25.394531 -24.527344 16.996094 -25.394531 16.0625 -21.328125 C 12.53125 -11.265625 9.863281 -2.933594 6.863281 -2.933594 C 4.132812 -2.933594 6.933594 -17.0625 8.53125 -21.996094 C 9.863281 -25.527344 1.734375 -26.328125 0.734375 -22.929688 C 0.734375 -22.726562 -6.933594 2.667969 3.464844 2.667969 C 7.199219 2.667969 10.730469 -0.867188 14.0625 -7.933594 C 12.796875 0.867188 13.195312 10.664062 19.328125 10.664062 Z M 19.328125 10.664062 "/></g></g></g><g fill="#ffbd59" fill-opacity="1"><g transform="translate(239.940966, 203.348101)"><g><path d="M 23.261719 17.929688 C 28.792969 17.929688 33.191406 8.53125 36.59375 -1.734375 C 38.457031 -7.597656 39.859375 -12.929688 41.324219 -18.929688 C 41.792969 -21.0625 42.257812 -21.730469 40.589844 -22.195312 C 39.257812 -22.460938 39.125 -21.328125 38.726562 -19.527344 C 37.660156 -14.929688 35.257812 -6.199219 34.058594 -2.53125 C 32.191406 3 28.195312 12.730469 26.394531 12.730469 C 24.792969 12.730469 25.726562 0.265625 26.527344 -7.597656 C 27.660156 -17.996094 28.660156 -28.925781 20.460938 -28.925781 C 13.265625 -28.925781 10.730469 -20.929688 7.863281 -12.332031 L 8.066406 -20.929688 C 8.066406 -24.527344 0.0664062 -23.863281 0.0664062 -20.996094 L -0.398438 -1 C -0.535156 1.734375 6.863281 1.867188 7.53125 -0.601562 C 9.265625 -6.730469 13.597656 -25.128906 17.464844 -25.128906 C 20.460938 -25.128906 19.261719 -18.195312 17.664062 0.464844 C 16.796875 9.066406 17.261719 17.929688 23.261719 17.929688 Z M 23.261719 17.929688 "/></g></g></g><g fill="#ffbd59" fill-opacity="1"><g transform="translate(278.394829, 203.348101)"><g><path d="M 4.265625 7.265625 C 11.996094 7.265625 20.730469 -8.730469 24.929688 -20.527344 C 25.195312 -21.261719 24.863281 -21.996094 24.128906 -22.261719 C 23.394531 -22.527344 22.660156 -22.195312 22.394531 -21.460938 C 19.863281 -14.464844 11.53125 3.066406 6.796875 3.066406 C 0.398438 3.066406 6.265625 -22.328125 10.066406 -22.328125 C 11.332031 -22.328125 11.796875 -18.929688 11.199219 -16.53125 C 10.996094 -15.796875 11.464844 -15.128906 12.199219 -14.929688 C 12.929688 -14.730469 13.597656 -15.128906 13.796875 -15.863281 C 15.128906 -20.730469 12.863281 -26.792969 7.398438 -26.792969 C -3.464844 -26.792969 -8.796875 7.265625 4.265625 7.265625 Z M 4.265625 7.265625 "/></g></g></g><g fill="#ffbd59" fill-opacity="1"><g transform="translate(300.054281, 203.348101)"><g><path d="M 23.863281 10.597656 C 29.859375 10.597656 34.859375 -5 39.792969 -20.527344 C 39.992188 -21.261719 39.589844 -21.929688 38.859375 -22.128906 C 38.125 -22.328125 37.457031 -21.929688 37.257812 -21.195312 C 32.058594 -6.597656 27.59375 6 25.128906 6 C 22.660156 6 23.996094 -6 24.660156 -9.730469 C 25.996094 -18.128906 26.792969 -28.925781 18.394531 -28.925781 C 12.199219 -28.925781 9.199219 -21.863281 6.933594 -14.996094 C 7.132812 -21.0625 7.53125 -25.394531 8.265625 -31.058594 C 20.195312 -36.992188 32.59375 -42.191406 27.859375 -53.523438 C 23.996094 -62.851562 11.996094 -62.519531 6.199219 -53.386719 C 0.933594 -45.125 0.734375 -36.925781 -2.199219 -1.066406 C -2.53125 2.066406 5.664062 1.332031 5.867188 -0.933594 C 6.597656 -7.265625 11.664062 -25.195312 16.0625 -25.195312 C 18.597656 -25.195312 16.996094 -13.863281 15.996094 -4.664062 C 15.0625 3.867188 14.398438 10.597656 23.863281 10.597656 Z M 8.730469 -34.257812 C 9.863281 -42.324219 11.53125 -48.054688 13.730469 -51.253906 C 18.0625 -57.585938 22.195312 -58.453125 25.394531 -52.523438 C 29.261719 -45.324219 19.195312 -38.523438 8.730469 -34.257812 Z M 8.730469 -34.257812 "/></g></g></g></svg>