<svg xmlns="http://www.w3.org/2000/svg" xmlns:xlink="http://www.w3.org/1999/xlink" width="500" zoomAndPan="magnify" viewBox="0 0 375 374.999991" height="500" preserveAspectRatio="xMidYMid meet" version="1.0"><defs><clipPath id="b87f181cda"><path d="M 63.75 78.730469 L 311.878906 78.730469 L 311.878906 296.269531 L 63.75 296.269531 Z M 63.75 78.730469 " clip-rule="nonzero"/></clipPath><clipPath id="1dd350f335"><path d="M 66 78.730469 L 309 78.730469 C 309.597656 78.730469 310.167969 78.96875 310.589844 79.390625 C 311.011719 79.8125 311.25 80.382812 311.25 80.980469 L 311.25 294.019531 C 311.25 294.617188 311.011719 295.1875 310.589844 295.609375 C 310.167969 296.03125 309.597656 296.269531 309 296.269531 L 66 296.269531 C 65.402344 296.269531 64.832031 296.03125 64.410156 295.609375 C 63.988281 295.1875 63.75 294.617188 63.75 294.019531 L 63.75 80.980469 C 63.75 80.382812 63.988281 79.8125 64.410156 79.390625 C 64.832031 78.96875 65.402344 78.730469 66 78.730469 Z M 66 78.730469 " clip-rule="nonzero"/></clipPath><clipPath id="131117d2f1"><path d="M 95.382812 113.230469 L 279.882812 113.230469 L 279.882812 261.730469 L 95.382812 261.730469 Z M 95.382812 113.230469 " clip-rule="nonzero"/></clipPath><clipPath id="c8acef969a"><path d="M 95.382812 117.730469 L 95.382812 257.269531 C 95.382812 259.753906 97.398438 261.769531 99.882812 261.769531 L 275.117188 261.769531 C 277.601562 261.769531 279.617188 259.753906 279.617188 257.269531 L 279.617188 117.730469 C 279.617188 115.246094 277.601562 113.230469 275.117188 113.230469 L 99.882812 113.230469 C 97.398438 113.230469 95.382812 115.246094 95.382812 117.730469 Z M 95.382812 117.730469 " clip-rule="nonzero"/></clipPath><clipPath id="e2ed8e1559"><path d="M 107 172 L 268 172 L 268 250 L 107 250 Z M 107 172 " clip-rule="nonzero"/></clipPath><clipPath id="736e7e5712"><path d="M 95.382812 117.730469 L 95.382812 257.269531 C 95.382812 259.753906 97.398438 261.769531 99.882812 261.769531 L 275.117188 261.769531 C 277.601562 261.769531 279.617188 259.753906 279.617188 257.269531 L 279.617188 117.730469 C 279.617188 115.246094 277.601562 113.230469 275.117188 113.230469 L 99.882812 113.230469 C 97.398438 113.230469 95.382812 115.246094 95.382812 117.730469 Z M 95.382812 117.730469 " clip-rule="nonzero"/></clipPath><clipPath id="768bab5e51"><path d="M 107 172 L 114 172 L 114 179 L 107 179 Z M 107 172 " clip-rule="nonzero"/></clipPath><clipPath id="c58bb79f93"><path d="M 95.382812 117.730469 L 95.382812 257.269531 C 95.382812 259.753906 97.398438 261.769531 99.882812 261.769531 L 275.117188 261.769531 C 277.601562 261.769531 279.617188 259.753906 279.617188 257.269531 L 279.617188 117.730469 C 279.617188 115.246094 277.601562 113.230469 275.117188 113.230469 L 99.882812 113.230469 C 97.398438 113.230469 95.382812 115.246094 95.382812 117.730469 Z M 95.382812 117.730469 " clip-rule="nonzero"/></clipPath><clipPath id="e0b7db73b3"><path d="M 107 243 L 114 243 L 114 250 L 107 250 Z M 107 243 " clip-rule="nonzero"/></clipPath><clipPath id="303f2d292c"><path d="M 95.382812 117.730469 L 95.382812 257.269531 C 95.382812 259.753906 97.398438 261.769531 99.882812 261.769531 L 275.117188 261.769531 C 277.601562 261.769531 279.617188 259.753906 279.617188 257.269531 L 279.617188 117.730469 C 279.617188 115.246094 277.601562 113.230469 275.117188 113.230469 L 99.882812 113.230469 C 97.398438 113.230469 95.382812 115.246094 95.382812 117.730469 Z M 95.382812 117.730469 " clip-rule="nonzero"/></clipPath><clipPath id="5c146cc6ef"><path d="M 261 172 L 268 172 L 268 179 L 261 179 Z M 261 172 " clip-rule="nonzero"/></clipPath><clipPath id="26e44893f6"><path d="M 95.382812 117.730469 L 95.382812 257.269531 C 95.382812 259.753906 97.398438 261.769531 99.882812 261.769531 L 275.117188 261.769531 C 277.601562 261.769531 279.617188 259.753906 279.617188 257.269531 L 279.617188 117.730469 C 279.617188 115.246094 277.601562 113.230469 275.117188 113.230469 L 99.882812 113.230469 C 97.398438 113.230469 95.382812 115.246094 95.382812 117.730469 Z M 95.382812 117.730469 " clip-rule="nonzero"/></clipPath><clipPath id="f251b52f16"><path d="M 243 127 L 251 127 L 251 136 L 243 136 Z M 243 127 " clip-rule="nonzero"/></clipPath><clipPath id="5414032c77"><path d="M 95.382812 117.730469 L 95.382812 257.269531 C 95.382812 259.753906 97.398438 261.769531 99.882812 261.769531 L 275.117188 261.769531 C 277.601562 261.769531 279.617188 259.753906 279.617188 257.269531 L 279.617188 117.730469 C 279.617188 115.246094 277.601562 113.230469 275.117188 113.230469 L 99.882812 113.230469 C 97.398438 113.230469 95.382812 115.246094 95.382812 117.730469 Z M 95.382812 117.730469 " clip-rule="nonzero"/></clipPath><clipPath id="e75d539672"><path d="M 261 243 L 268 243 L 268 250 L 261 250 Z M 261 243 " clip-rule="nonzero"/></clipPath><clipPath id="010c08bf89"><path d="M 95.382812 117.730469 L 95.382812 257.269531 C 95.382812 259.753906 97.398438 261.769531 99.882812 261.769531 L 275.117188 261.769531 C 277.601562 261.769531 279.617188 259.753906 279.617188 257.269531 L 279.617188 117.730469 C 279.617188 115.246094 277.601562 113.230469 275.117188 113.230469 L 99.882812 113.230469 C 97.398438 113.230469 95.382812 115.246094 95.382812 117.730469 Z M 95.382812 117.730469 " clip-rule="nonzero"/></clipPath><clipPath id="d3b914cb75"><path d="M 226 202 L 244 202 L 244 221 L 226 221 Z M 226 202 " clip-rule="nonzero"/></clipPath><clipPath id="eedefb4254"><path d="M 95.382812 117.730469 L 95.382812 257.269531 C 95.382812 259.753906 97.398438 261.769531 99.882812 261.769531 L 275.117188 261.769531 C 277.601562 261.769531 279.617188 259.753906 279.617188 257.269531 L 279.617188 117.730469 C 279.617188 115.246094 277.601562 113.230469 275.117188 113.230469 L 99.882812 113.230469 C 97.398438 113.230469 95.382812 115.246094 95.382812 117.730469 Z M 95.382812 117.730469 " clip-rule="nonzero"/></clipPath><clipPath id="d2f2335c9a"><path d="M 131 202 L 149 202 L 149 221 L 131 221 Z M 131 202 " clip-rule="nonzero"/></clipPath><clipPath id="8823891a73"><path d="M 95.382812 117.730469 L 95.382812 257.269531 C 95.382812 259.753906 97.398438 261.769531 99.882812 261.769531 L 275.117188 261.769531 C 277.601562 261.769531 279.617188 259.753906 279.617188 257.269531 L 279.617188 117.730469 C 279.617188 115.246094 277.601562 113.230469 275.117188 113.230469 L 99.882812 113.230469 C 97.398438 113.230469 95.382812 115.246094 95.382812 117.730469 Z M 95.382812 117.730469 " clip-rule="nonzero"/></clipPath><clipPath id="d2ef2f4f90"><path d="M 166 187 L 205 187 L 205 236 L 166 236 Z M 166 187 " clip-rule="nonzero"/></clipPath><clipPath id="6765f02012"><path d="M 95.382812 117.730469 L 95.382812 257.269531 C 95.382812 259.753906 97.398438 261.769531 99.882812 261.769531 L 275.117188 261.769531 C 277.601562 261.769531 279.617188 259.753906 279.617188 257.269531 L 279.617188 117.730469 C 279.617188 115.246094 277.601562 113.230469 275.117188 113.230469 L 99.882812 113.230469 C 97.398438 113.230469 95.382812 115.246094 95.382812 117.730469 Z M 95.382812 117.730469 " clip-rule="nonzero"/></clipPath></defs><rect x="-37.5" width="450" fill="#ffffff" y="-37.499999" height="449.999989" fill-opacity="1"/><rect x="-37.5" width="450" fill="#ffffff" y="-37.499999" height="449.999989" fill-opacity="1"/><g clip-path="url(#b87f181cda)"><g clip-path="url(#1dd350f335)"><path fill="#ffbd59" d="M 63.75 78.730469 L 311.03125 78.730469 L 311.03125 296.269531 L 63.75 296.269531 Z M 63.75 78.730469 " fill-opacity="1" fill-rule="nonzero"/></g></g><g clip-path="url(#131117d2f1)"><g clip-path="url(#c8acef969a)"><path fill="#ffffff" d="M 276.441406 160.964844 L 273.152344 160.964844 L 256.949219 115.496094 C 256.398438 113.960938 254.722656 113.152344 253.175781 113.691406 L 117.945312 160.964844 L 98.554688 160.964844 C 96.914062 160.964844 95.589844 162.289062 95.589844 163.929688 L 95.589844 258.800781 C 95.589844 260.441406 96.914062 261.765625 98.554688 261.765625 L 276.441406 261.765625 C 278.082031 261.765625 279.40625 260.441406 279.40625 258.800781 L 279.40625 163.929688 C 279.40625 162.289062 278.082031 160.964844 276.441406 160.964844 Z M 252.351562 120.261719 L 266.855469 160.964844 L 260.769531 160.964844 L 253.640625 141.53125 C 253.085938 140.011719 251.417969 139.222656 249.878906 139.753906 C 245.253906 141.371094 240.15625 138.96875 238.523438 134.386719 C 237.972656 132.847656 236.296875 132.046875 234.753906 132.585938 L 153.578125 160.964844 L 135.921875 160.964844 Z M 254.457031 160.964844 L 171.558594 160.964844 L 234.214844 139.0625 C 237.265625 144.101562 243.109375 146.855469 248.988281 146.042969 Z M 273.476562 255.835938 L 101.519531 255.835938 L 101.519531 166.894531 L 273.476562 166.894531 Z M 273.476562 255.835938 " fill-opacity="1" fill-rule="nonzero"/></g></g><g clip-path="url(#e2ed8e1559)"><g clip-path="url(#736e7e5712)"><path fill="#ffffff" d="M 110.414062 238.046875 C 115.316406 238.046875 119.308594 242.039062 119.308594 246.941406 C 119.308594 248.582031 120.632812 249.90625 122.273438 249.90625 L 252.722656 249.90625 C 254.363281 249.90625 255.6875 248.582031 255.6875 246.941406 C 255.6875 242.039062 259.679688 238.046875 264.582031 238.046875 C 265.371094 238.046875 266.125 237.738281 266.679688 237.179688 C 267.234375 236.621094 267.546875 235.871094 267.546875 235.082031 L 267.542969 187.648438 C 267.542969 186.011719 266.21875 184.683594 264.578125 184.683594 C 259.679688 184.683594 255.6875 180.691406 255.6875 175.789062 C 255.6875 174.148438 254.363281 172.824219 252.722656 172.824219 L 122.273438 172.824219 C 120.632812 172.824219 119.308594 174.148438 119.308594 175.789062 C 119.308594 180.691406 115.316406 184.683594 110.414062 184.683594 C 108.773438 184.683594 107.449219 186.011719 107.449219 187.648438 L 107.449219 235.082031 C 107.449219 236.722656 108.773438 238.046875 110.414062 238.046875 Z M 160.816406 211.363281 C 160.816406 193.390625 172.773438 178.769531 187.476562 178.753906 L 187.523438 178.753906 C 202.222656 178.769531 214.179688 193.390625 214.179688 211.363281 C 214.179688 229.347656 202.210938 243.976562 187.5 243.976562 C 172.785156 243.976562 160.816406 229.347656 160.816406 211.363281 Z M 250.058594 178.753906 C 251.238281 184.554688 255.820312 189.132812 261.617188 190.316406 L 261.617188 232.414062 C 255.820312 233.59375 251.238281 238.175781 250.058594 243.972656 L 204.796875 243.972656 C 213.980469 237.148438 220.109375 225.101562 220.109375 211.363281 C 220.109375 197.628906 213.980469 185.582031 204.800781 178.753906 Z M 113.378906 190.316406 C 119.179688 189.132812 123.757812 184.550781 124.9375 178.753906 L 170.195312 178.753906 C 161.015625 185.582031 154.886719 197.628906 154.886719 211.363281 C 154.886719 225.101562 161.015625 237.148438 170.199219 243.976562 L 124.9375 243.976562 C 123.757812 238.179688 119.179688 233.597656 113.378906 232.417969 Z M 113.378906 190.316406 " fill-opacity="1" fill-rule="nonzero"/></g></g><g clip-path="url(#768bab5e51)"><g clip-path="url(#c58bb79f93)"><path fill="#ffffff" d="M 107.449219 172.824219 L 113.378906 172.824219 L 113.378906 178.753906 L 107.449219 178.753906 Z M 107.449219 172.824219 " fill-opacity="1" fill-rule="nonzero"/></g></g><g clip-path="url(#e0b7db73b3)"><g clip-path="url(#303f2d292c)"><path fill="#ffffff" d="M 107.449219 243.976562 L 113.378906 243.976562 L 113.378906 249.90625 L 107.449219 249.90625 Z M 107.449219 243.976562 " fill-opacity="1" fill-rule="nonzero"/></g></g><g clip-path="url(#5c146cc6ef)"><g clip-path="url(#26e44893f6)"><path fill="#ffffff" d="M 261.617188 172.824219 L 267.546875 172.824219 L 267.546875 178.753906 L 261.617188 178.753906 Z M 261.617188 172.824219 " fill-opacity="1" fill-rule="nonzero"/></g></g><g clip-path="url(#f251b52f16)"><g clip-path="url(#5414032c77)"><path fill="#ffffff" d="M 243.148438 129.648438 L 248.738281 127.695312 L 250.695312 133.292969 L 245.105469 135.25 Z M 243.148438 129.648438 " fill-opacity="1" fill-rule="nonzero"/></g></g><g clip-path="url(#e75d539672)"><g clip-path="url(#010c08bf89)"><path fill="#ffffff" d="M 261.617188 243.976562 L 267.546875 243.976562 L 267.546875 249.90625 L 261.617188 249.90625 Z M 261.617188 243.976562 " fill-opacity="1" fill-rule="nonzero"/></g></g><g clip-path="url(#d3b914cb75)"><g clip-path="url(#eedefb4254)"><path fill="#ffffff" d="M 234.933594 220.257812 C 239.839844 220.257812 243.828125 216.269531 243.828125 211.363281 C 243.828125 206.460938 239.839844 202.46875 234.933594 202.46875 C 230.03125 202.46875 226.039062 206.460938 226.039062 211.363281 C 226.039062 216.269531 230.03125 220.257812 234.933594 220.257812 Z M 234.933594 208.398438 C 236.570312 208.398438 237.898438 209.726562 237.898438 211.363281 C 237.898438 213 236.570312 214.328125 234.933594 214.328125 C 233.296875 214.328125 231.96875 213 231.96875 211.363281 C 231.96875 209.726562 233.296875 208.398438 234.933594 208.398438 Z M 234.933594 208.398438 " fill-opacity="1" fill-rule="nonzero"/></g></g><g clip-path="url(#d2f2335c9a)"><g clip-path="url(#8823891a73)"><path fill="#ffffff" d="M 140.0625 220.257812 C 144.964844 220.257812 148.957031 216.269531 148.957031 211.363281 C 148.957031 206.460938 144.964844 202.46875 140.0625 202.46875 C 135.160156 202.46875 131.167969 206.460938 131.167969 211.363281 C 131.167969 216.269531 135.160156 220.257812 140.0625 220.257812 Z M 140.0625 208.398438 C 141.699219 208.398438 143.027344 209.726562 143.027344 211.363281 C 143.027344 213 141.699219 214.328125 140.0625 214.328125 C 138.425781 214.328125 137.097656 213 137.097656 211.363281 C 137.097656 209.726562 138.425781 208.398438 140.0625 208.398438 Z M 140.0625 208.398438 " fill-opacity="1" fill-rule="nonzero"/></g></g><g clip-path="url(#d2ef2f4f90)"><g clip-path="url(#6765f02012)"><path fill="#ffffff" d="M 199.664062 221.902344 C 197.40625 226.445312 193.851562 229.152344 190.15625 229.152344 C 185.871094 229.152344 182.039062 225.523438 179.957031 220.257812 L 187.5 220.257812 L 187.5 214.328125 L 178.484375 214.328125 C 178.371094 213.359375 178.296875 212.371094 178.296875 211.363281 C 178.296875 210.355469 178.367188 209.371094 178.484375 208.398438 L 187.5 208.398438 L 187.5 202.46875 L 179.957031 202.46875 C 182.042969 197.203125 185.875 193.578125 190.15625 193.578125 C 193.847656 193.578125 197.402344 196.285156 199.664062 200.828125 L 204.976562 198.179688 C 201.6875 191.585938 196.148438 187.648438 190.15625 187.648438 C 182.703125 187.648438 176.320312 193.789062 173.675781 202.46875 L 166.4375 202.46875 L 166.4375 208.398438 L 172.519531 208.398438 C 172.429688 209.371094 172.367188 210.359375 172.367188 211.363281 C 172.367188 212.371094 172.429688 213.355469 172.519531 214.328125 L 166.4375 214.328125 L 166.4375 220.257812 L 173.675781 220.257812 C 176.320312 228.941406 182.707031 235.082031 190.15625 235.082031 C 196.148438 235.082031 201.6875 231.144531 204.976562 224.546875 Z M 199.664062 221.902344 " fill-opacity="1" fill-rule="nonzero"/></g></g></svg>