<svg xmlns="http://www.w3.org/2000/svg" xmlns:xlink="http://www.w3.org/1999/xlink" width="500" zoomAndPan="magnify" viewBox="0 0 375 374.999991" height="500" preserveAspectRatio="xMidYMid meet" version="1.0"><defs><clipPath id="fff6e37298"><path d="M 66.910156 92.394531 L 314.566406 92.394531 L 314.566406 327.207031 L 66.910156 327.207031 Z M 66.910156 92.394531 " clip-rule="nonzero"/></clipPath><clipPath id="04ceb3717e"><path d="M 69.160156 92.394531 L 312.160156 92.394531 C 312.757812 92.394531 313.328125 92.632812 313.75 93.054688 C 314.171875 93.476562 314.410156 94.046875 314.410156 94.644531 L 314.410156 324.957031 C 314.410156 325.554688 314.171875 326.125 313.75 326.550781 C 313.328125 326.972656 312.757812 327.207031 312.160156 327.207031 L 69.160156 327.207031 C 68.566406 327.207031 67.992188 326.972656 67.570312 326.550781 C 67.148438 326.125 66.910156 325.554688 66.910156 324.957031 L 66.910156 94.644531 C 66.910156 94.046875 67.148438 93.476562 67.570312 93.054688 C 67.992188 92.632812 68.566406 92.394531 69.160156 92.394531 Z M 69.160156 92.394531 " clip-rule="nonzero"/></clipPath><clipPath id="e8e72f397b"><path d="M 76 201 L 308 201 L 308 209 L 76 209 Z M 76 201 " clip-rule="nonzero"/></clipPath><clipPath id="92ecb9d09e"><path d="M 66.910156 90.53125 L 66.910156 322.707031 C 66.910156 325.191406 68.925781 327.207031 71.410156 327.207031 L 303.589844 327.207031 C 306.074219 327.207031 308.089844 325.191406 308.089844 322.707031 L 308.089844 90.53125 C 308.089844 89.335938 307.613281 88.191406 306.769531 87.347656 C 305.925781 86.503906 304.78125 86.03125 303.589844 86.03125 L 71.410156 86.03125 C 68.925781 86.03125 66.910156 88.046875 66.910156 90.53125 Z M 66.910156 90.53125 " clip-rule="nonzero"/></clipPath><clipPath id="66c7944c91"><path d="M 67 210 L 268 210 L 268 327 L 67 327 Z M 67 210 " clip-rule="nonzero"/></clipPath><clipPath id="a532614112"><path d="M 66.910156 90.53125 L 66.910156 322.707031 C 66.910156 325.191406 68.925781 327.207031 71.410156 327.207031 L 303.589844 327.207031 C 306.074219 327.207031 308.089844 325.191406 308.089844 322.707031 L 308.089844 90.53125 C 308.089844 89.335938 307.613281 88.191406 306.769531 87.347656 C 305.925781 86.503906 304.78125 86.03125 303.589844 86.03125 L 71.410156 86.03125 C 68.925781 86.03125 66.910156 88.046875 66.910156 90.53125 Z M 66.910156 90.53125 " clip-rule="nonzero"/></clipPath><clipPath id="147254b087"><path d="M 94 86.03125 L 291 86.03125 L 291 198 L 94 198 Z M 94 86.03125 " clip-rule="nonzero"/></clipPath><clipPath id="129d43c78a"><path d="M 66.910156 90.53125 L 66.910156 322.707031 C 66.910156 325.191406 68.925781 327.207031 71.410156 327.207031 L 303.589844 327.207031 C 306.074219 327.207031 308.089844 325.191406 308.089844 322.707031 L 308.089844 90.53125 C 308.089844 89.335938 307.613281 88.191406 306.769531 87.347656 C 305.925781 86.503906 304.78125 86.03125 303.589844 86.03125 L 71.410156 86.03125 C 68.925781 86.03125 66.910156 88.046875 66.910156 90.53125 Z M 66.910156 90.53125 " clip-rule="nonzero"/></clipPath></defs><rect x="-37.5" width="450" fill="#ffffff" y="-37.499999" height="449.999989" fill-opacity="1"/><rect x="-37.5" width="450" fill="#ffffff" y="-37.499999" height="449.999989" fill-opacity="1"/><g clip-path="url(#fff6e37298)"><g clip-path="url(#04ceb3717e)"><path fill="#ffbd59" d="M 66.910156 92.394531 L 314.566406 92.394531 L 314.566406 327.207031 L 66.910156 327.207031 Z M 66.910156 92.394531 " fill-opacity="1" fill-rule="nonzero"/></g></g><g clip-path="url(#e8e72f397b)"><g clip-path="url(#92ecb9d09e)"><path fill="#ffffff" d="M 304.585938 201.183594 C 306.519531 201.183594 308 202.832031 308 204.601562 C 308 206.535156 306.519531 208.015625 304.585938 208.015625 L 79.792969 208.015625 C 77.859375 208.015625 76.378906 206.535156 76.378906 204.601562 C 76.378906 202.832031 77.859375 201.183594 79.792969 201.183594 Z M 304.585938 201.183594 " fill-opacity="1" fill-rule="nonzero"/></g></g><g clip-path="url(#66c7944c91)"><g clip-path="url(#a532614112)"><path fill="#ffffff" d="M 76.5 261.4375 L 116.339844 318.847656 L 144.695312 303.167969 L 124.40625 268.554688 C 124.40625 268.554688 124.242188 268.390625 124.242188 268.269531 L 115.722656 253.78125 Z M 147.207031 293.949219 C 153.339844 291.273438 163.914062 286.335938 175.234375 280.367188 C 188.363281 273.496094 202.519531 265.015625 211.328125 256.785156 C 216.101562 252.464844 220.875 247.976562 225.195312 243.820312 C 236.511719 232.792969 245.9375 223.820312 255.609375 218.921875 C 250.09375 217.277344 242.027344 216.535156 232.808594 221.597656 C 230.585938 222.957031 227.292969 225.179688 223.261719 227.851562 C 204.617188 240.527344 171.816406 262.753906 160.335938 246.496094 C 157.78125 242.75 156.589844 238.59375 155.394531 234.398438 C 154.039062 230.238281 152.84375 225.878906 150.167969 222.75 C 148.234375 220.527344 145.683594 218.714844 142.84375 218.261719 C 141.648438 218.097656 140.292969 218.097656 138.976562 218.550781 C 142.390625 223.039062 144.65625 227.8125 145.847656 232.710938 C 147.207031 238.839844 146.875 245.21875 145.558594 251.640625 C 144.65625 255.796875 142.882812 259.378906 140.046875 262.546875 C 137.945312 264.769531 135.433594 266.703125 132.144531 268.226562 Z M 128.726562 262.464844 C 131.402344 261.105469 133.5 259.625 134.984375 257.980469 C 137.082031 255.878906 138.273438 253.203125 138.851562 250.242188 C 140.042969 244.726562 140.332031 239.335938 139.140625 234.273438 C 137.945312 229.210938 135.394531 224.4375 130.949219 219.785156 C 130.785156 219.621094 130.660156 219.5 130.496094 219.210938 C 129.46875 217.730469 129.921875 215.628906 131.527344 214.601562 C 135.847656 211.761719 140.042969 211.019531 143.914062 211.636719 C 148.523438 212.378906 152.433594 214.929688 155.230469 218.347656 C 158.976562 222.503906 160.457031 227.605469 161.941406 232.667969 C 162.96875 236.25 164.039062 239.992188 165.808594 242.667969 C 173.421875 253.410156 202.808594 233.574219 219.351562 222.214844 C 223.671875 219.375 227.253906 216.988281 229.476562 215.671875 C 248.859375 204.765625 264.992188 215.835938 266.1875 216.578125 C 266.761719 217.027344 267.378906 217.769531 267.546875 218.511719 C 267.996094 220.445312 266.96875 222.253906 265.15625 222.667969 C 254.128906 225.34375 243.511719 235.507812 229.96875 248.761719 C 225.8125 252.792969 221.164062 257.113281 215.9375 261.886719 C 206.550781 270.53125 191.941406 279.339844 178.359375 286.5 C 167.332031 292.300781 157.042969 297.078125 150.621094 299.917969 L 152.269531 302.46875 C 152.269531 302.632812 152.269531 302.757812 152.433594 302.757812 C 153.339844 304.402344 152.722656 306.5 151.074219 307.367188 L 116.914062 326.296875 C 115.269531 327.203125 113.335938 326.75 112.429688 325.269531 L 68.023438 261.148438 C 67.734375 260.695312 67.445312 260.242188 67.445312 259.667969 C 66.992188 257.894531 68.1875 256.085938 70.121094 255.632812 L 116.792969 246.703125 C 118.273438 246.414062 119.632812 246.988281 120.371094 248.347656 Z M 128.726562 262.464844 " fill-opacity="1" fill-rule="nonzero"/></g></g><g clip-path="url(#147254b087)"><g clip-path="url(#129d43c78a)"><path fill="#ffffff" d="M 261.453125 122.863281 C 244.621094 105.910156 221.65625 95.085938 196.304688 94.015625 L 196.304688 89.445312 C 196.304688 87.511719 194.660156 86.03125 192.890625 86.03125 C 190.953125 86.03125 189.472656 87.511719 189.472656 89.445312 L 189.472656 93.972656 C 163.628906 94.671875 140.042969 105.578125 122.882812 122.863281 C 105.144531 140.601562 94.117188 165.089844 94.117188 192.089844 L 94.117188 193.734375 C 94.117188 195.503906 95.597656 197.152344 97.53125 197.152344 L 286.804688 197.152344 C 288.738281 197.152344 290.222656 195.503906 290.222656 193.734375 L 290.222656 192.089844 C 290.261719 165.089844 279.234375 140.601562 261.453125 122.863281 Z M 120.824219 190.277344 C 121.277344 170.316406 128.972656 152.414062 141.238281 138.667969 C 154.203125 124.058594 172.394531 114.34375 192.394531 111.957031 C 194.328125 111.792969 195.6875 110.1875 195.359375 108.214844 C 195.195312 106.277344 193.589844 104.921875 191.613281 105.25 C 169.964844 107.800781 150.292969 118.378906 136.136719 134.183594 C 122.800781 149.121094 114.40625 168.507812 113.953125 190.277344 L 100.988281 190.277344 C 101.441406 165.832031 111.566406 143.730469 127.699219 127.640625 C 144.242188 111.09375 167.085938 100.804688 192.148438 100.804688 C 217.335938 100.804688 240.175781 111.09375 256.722656 127.640625 C 272.8125 143.730469 282.976562 165.832031 283.429688 190.277344 Z M 120.824219 190.277344 " fill-opacity="1" fill-rule="nonzero"/></g></g></svg>