<svg xmlns="http://www.w3.org/2000/svg" xmlns:xlink="http://www.w3.org/1999/xlink" width="500" zoomAndPan="magnify" viewBox="0 0 375 374.999991" height="500" preserveAspectRatio="xMidYMid meet" version="1.0"><defs><clipPath id="3cf8b6e326"><path d="M 66.617188 88.136719 L 309 88.136719 L 309 300.632812 L 66.617188 300.632812 Z M 66.617188 88.136719 " clip-rule="nonzero"/></clipPath><clipPath id="6f5ee82256"><path d="M 71.117188 88.136719 L 303.882812 88.136719 C 306.367188 88.136719 308.382812 90.152344 308.382812 92.636719 L 308.382812 296.132812 C 308.382812 298.621094 306.367188 300.632812 303.882812 300.632812 L 71.117188 300.632812 C 68.632812 300.632812 66.617188 298.621094 66.617188 296.132812 L 66.617188 92.636719 C 66.617188 90.152344 68.632812 88.136719 71.117188 88.136719 Z M 71.117188 88.136719 " clip-rule="nonzero"/></clipPath><clipPath id="e581b8a7b7"><path d="M 139 134.117188 L 236 134.117188 L 236 263.867188 L 139 263.867188 Z M 139 134.117188 " clip-rule="nonzero"/></clipPath></defs><rect x="-37.5" width="450" fill="#ffffff" y="-37.499999" height="449.999989" fill-opacity="1"/><rect x="-37.5" width="450" fill="#ffffff" y="-37.499999" height="449.999989" fill-opacity="1"/><g clip-path="url(#3cf8b6e326)"><g clip-path="url(#6f5ee82256)"><path fill="#ffbd59" d="M 66.617188 88.136719 L 308.167969 88.136719 L 308.167969 300.632812 L 66.617188 300.632812 Z M 66.617188 88.136719 " fill-opacity="1" fill-rule="nonzero"/></g></g><g clip-path="url(#e581b8a7b7)"><path fill="#ffffff" d="M 187.496094 196.5 C 175.976562 196.5 166.636719 188.285156 166.636719 178.148438 C 166.636719 168.015625 175.976562 159.796875 187.496094 159.796875 C 199.019531 159.796875 208.359375 168.015625 208.359375 178.148438 C 208.359375 188.285156 199.019531 196.5 187.496094 196.5 Z M 190.597656 134.125 L 184.398438 134.125 C 148.507812 134.125 126.984375 173.996094 146.679688 204 L 184.347656 261.398438 C 185.835938 263.664062 189.160156 263.664062 190.648438 261.398438 L 228.316406 204 C 248.007812 173.996094 226.484375 134.125 190.597656 134.125 " fill-opacity="1" fill-rule="nonzero"/></g></svg>