<svg xmlns="http://www.w3.org/2000/svg" xmlns:xlink="http://www.w3.org/1999/xlink" width="500" zoomAndPan="magnify" viewBox="0 0 375 374.999991" height="500" preserveAspectRatio="xMidYMid meet" version="1.0"><defs><clipPath id="eed5358147"><path d="M 112.5 112.5 L 262.5 112.5 L 262.5 262.5 L 112.5 262.5 Z M 112.5 112.5 " clip-rule="nonzero"/></clipPath></defs><rect x="-37.5" width="450" fill="#ffffff" y="-37.499999" height="449.999989" fill-opacity="1"/><rect x="-37.5" width="450" fill="#ffffff" y="-37.499999" height="449.999989" fill-opacity="1"/><g clip-path="url(#eed5358147)"><path fill="#000000" d="M 187.5 112.5 C 146.167969 112.5 112.5 146.167969 112.5 187.5 C 112.5 228.832031 146.167969 262.5 187.5 262.5 C 228.832031 262.5 262.5 228.832031 262.5 187.5 C 262.5 146.167969 228.832031 112.5 187.5 112.5 Z M 187.5 127.5 C 220.726562 127.5 247.5 154.273438 247.5 187.5 C 247.5 220.726562 220.726562 247.5 187.5 247.5 C 154.273438 247.5 127.5 220.726562 127.5 187.5 C 127.5 154.273438 154.273438 127.5 187.5 127.5 Z M 187.5 150.042969 C 177.886719 150.042969 168.277344 153.695312 160.984375 160.984375 C 146.40625 175.566406 146.40625 199.433594 160.984375 214.011719 C 175.566406 228.59375 199.433594 228.59375 214.011719 214.011719 L 203.40625 203.40625 C 194.558594 212.257812 180.441406 212.257812 171.589844 203.40625 C 162.742188 194.558594 162.742188 180.441406 171.589844 171.589844 C 180.441406 162.742188 194.558594 162.742188 203.40625 171.589844 L 214.011719 160.984375 C 206.722656 153.695312 197.113281 150.042969 187.5 150.042969 Z M 187.5 150.042969 " fill-opacity="1" fill-rule="nonzero"/></g></svg>