<svg xmlns="http://www.w3.org/2000/svg" xmlns:xlink="http://www.w3.org/1999/xlink" width="500" zoomAndPan="magnify" viewBox="0 0 375 374.999991" height="500" preserveAspectRatio="xMidYMid meet" version="1.0"><defs><clipPath id="1d1b871556"><path d="M 82 80.566406 L 305 80.566406 L 305 283.066406 L 82 283.066406 Z M 82 80.566406 " clip-rule="nonzero"/></clipPath></defs><rect x="-37.5" width="450" fill="#ffffff" y="-37.499999" height="449.999989" fill-opacity="1"/><rect x="-37.5" width="450" fill="#ffffff" y="-37.499999" height="449.999989" fill-opacity="1"/><g clip-path="url(#1d1b871556)"><path fill="#ffe6c0" d="M 245.933594 80.609375 C 220.335938 80.609375 201.84375 95.296875 193.660156 103.320312 C 185.476562 95.296875 167.015625 80.609375 141.417969 80.609375 C 119.5625 80.609375 100.308594 93.140625 89.933594 114.105469 C 76.296875 141.671875 81.59375 176.816406 103.921875 206.0625 C 130.601562 237.6875 169.171875 268.457031 184.523438 280.226562 C 187.222656 282.289062 190.425781 283.300781 193.660156 283.300781 C 196.894531 283.300781 200.097656 282.289062 202.796875 280.226562 C 218.148438 268.457031 256.71875 237.6875 283.585938 205.839844 C 305.757812 176.816406 311.058594 141.671875 297.417969 114.105469 C 287.042969 93.140625 267.789062 80.609375 245.933594 80.609375 Z M 274.292969 198.386719 C 248.378906 229.125 210.597656 259.257812 195.5625 270.773438 C 194.453125 271.628906 192.898438 271.628906 191.789062 270.773438 C 176.753906 259.257812 138.972656 229.125 113.25 198.609375 C 90.0625 168.253906 91.519531 137.769531 100.625 119.371094 C 108.96875 102.527344 124.191406 92.503906 141.417969 92.503906 C 170.027344 92.503906 188.839844 115.535156 189.027344 115.753906 C 191.28125 118.609375 196.101562 118.609375 198.355469 115.753906 C 198.546875 115.535156 217.164062 92.503906 245.96875 92.503906 C 263.191406 92.503906 278.417969 102.558594 286.757812 119.371094 C 295.832031 137.800781 297.289062 168.285156 274.292969 198.386719 Z M 274.292969 198.386719 " fill-opacity="1" fill-rule="nonzero"/></g></svg>