<svg xmlns="http://www.w3.org/2000/svg" xmlns:xlink="http://www.w3.org/1999/xlink" width="500" zoomAndPan="magnify" viewBox="0 0 375 374.999991" height="500" preserveAspectRatio="xMidYMid meet" version="1.0"><defs><clipPath id="df4eb4680b"><path d="M 221 215 L 314 215 L 314 308.40625 L 221 308.40625 Z M 221 215 " clip-rule="nonzero"/></clipPath></defs><rect x="-37.5" width="450" fill="#ffffff" y="-37.499999" height="449.999989" fill-opacity="1"/><rect x="-37.5" width="450" fill="#ffffff" y="-37.499999" height="449.999989" fill-opacity="1"/><path fill="#545454" d="M 173.304688 259.5 C 171.421875 259.5 169.539062 259.445312 167.660156 259.328125 C 165.78125 259.214844 163.90625 259.042969 162.039062 258.8125 C 160.167969 258.582031 158.308594 258.296875 156.457031 257.953125 C 154.605469 257.609375 152.765625 257.207031 150.9375 256.75 C 149.109375 256.292969 147.300781 255.78125 145.503906 255.214844 C 143.707031 254.644531 141.929688 254.023438 140.175781 253.34375 C 138.417969 252.667969 136.683594 251.9375 134.96875 251.15625 C 133.257812 250.371094 131.570312 249.535156 129.910156 248.648438 C 128.246094 247.761719 126.613281 246.824219 125.011719 245.835938 C 123.40625 244.847656 121.835938 243.8125 120.296875 242.730469 C 118.753906 241.644531 117.25 240.515625 115.777344 239.339844 C 114.308594 238.160156 112.875 236.941406 111.480469 235.675781 C 110.082031 234.414062 108.726562 233.105469 107.414062 231.757812 C 106.097656 230.410156 104.824219 229.023438 103.59375 227.597656 C 102.363281 226.171875 101.175781 224.710938 100.035156 223.210938 C 98.894531 221.714844 97.800781 220.179688 96.753906 218.613281 C 95.710938 217.050781 94.710938 215.453125 93.761719 213.824219 C 92.8125 212.199219 91.917969 210.542969 91.070312 208.863281 C 90.222656 207.179688 89.429688 205.472656 88.6875 203.742188 C 87.945312 202.011719 87.253906 200.257812 86.621094 198.488281 C 85.984375 196.714844 85.40625 194.921875 84.882812 193.113281 C 84.355469 191.304688 83.886719 189.480469 83.476562 187.644531 C 83.0625 185.804688 82.707031 183.957031 82.40625 182.097656 C 82.109375 180.238281 81.867188 178.371094 81.679688 176.5 C 81.496094 174.625 81.371094 172.746094 81.300781 170.863281 C 81.230469 168.980469 81.21875 167.097656 81.265625 165.214844 C 81.3125 163.332031 81.414062 161.453125 81.578125 159.578125 C 81.738281 157.703125 81.957031 155.832031 82.234375 153.96875 C 82.511719 152.105469 82.84375 150.253906 83.234375 148.410156 C 83.625 146.566406 84.070312 144.738281 84.574219 142.925781 C 85.074219 141.109375 85.632812 139.3125 86.246094 137.53125 C 86.859375 135.75 87.527344 133.988281 88.246094 132.25 C 88.96875 130.507812 89.742188 128.792969 90.566406 127.101562 C 91.394531 125.410156 92.273438 123.742188 93.199219 122.105469 C 94.128906 120.464844 95.105469 118.859375 96.132812 117.277344 C 97.160156 115.699219 98.234375 114.15625 99.359375 112.640625 C 100.480469 111.128906 101.648438 109.652344 102.859375 108.210938 C 104.074219 106.773438 105.328125 105.371094 106.628906 104.003906 C 107.925781 102.640625 109.265625 101.320312 110.648438 100.039062 C 112.027344 98.757812 113.445312 97.519531 114.902344 96.324219 C 116.359375 95.128906 117.847656 93.980469 119.375 92.878906 C 120.902344 91.777344 122.460938 90.722656 124.054688 89.714844 C 125.644531 88.707031 127.265625 87.75 128.914062 86.839844 C 130.566406 85.933594 132.242188 85.078125 133.945312 84.273438 C 135.648438 83.46875 137.375 82.71875 139.125 82.019531 C 140.871094 81.320312 142.640625 80.675781 144.429688 80.085938 C 146.21875 79.496094 148.023438 78.960938 149.84375 78.480469 C 151.664062 78.003906 153.5 77.578125 155.347656 77.210938 C 157.195312 76.847656 159.050781 76.535156 160.917969 76.285156 C 162.785156 76.03125 164.65625 75.835938 166.535156 75.699219 C 168.414062 75.558594 170.292969 75.480469 172.175781 75.457031 C 174.058594 75.4375 175.941406 75.472656 177.824219 75.566406 C 179.703125 75.660156 181.582031 75.808594 183.453125 76.019531 C 185.324219 76.226562 187.1875 76.492188 189.042969 76.816406 C 190.898438 77.136719 192.742188 77.519531 194.574219 77.953125 C 196.40625 78.390625 198.222656 78.882812 200.027344 79.429688 C 201.828125 79.976562 203.609375 80.582031 205.375 81.238281 C 207.140625 81.894531 208.882812 82.605469 210.605469 83.371094 C 212.328125 84.132812 214.023438 84.949219 215.695312 85.820312 C 217.363281 86.6875 219.007812 87.605469 220.621094 88.574219 C 222.238281 89.542969 223.820312 90.5625 225.375 91.628906 C 226.925781 92.695312 228.445312 93.808594 229.925781 94.96875 C 231.410156 96.128906 232.859375 97.332031 234.269531 98.582031 C 235.679688 99.828125 237.050781 101.121094 238.378906 102.453125 C 239.980469 104.050781 241.515625 105.703125 242.992188 107.414062 C 244.46875 109.125 245.882812 110.886719 247.230469 112.699219 C 248.578125 114.515625 249.855469 116.375 251.066406 118.285156 C 252.273438 120.195312 253.414062 122.144531 254.480469 124.136719 C 255.546875 126.128906 256.535156 128.15625 257.453125 130.222656 C 258.371094 132.289062 259.207031 134.386719 259.96875 136.511719 C 260.734375 138.640625 261.414062 140.792969 262.019531 142.972656 C 262.621094 145.148438 263.144531 147.34375 263.585938 149.5625 C 264.027344 151.777344 264.386719 154.007812 264.664062 156.25 C 264.941406 158.492188 265.132812 160.742188 265.246094 163 C 265.355469 165.257812 265.386719 167.515625 265.328125 169.773438 C 265.273438 172.035156 265.136719 174.289062 264.914062 176.535156 C 264.695312 178.785156 264.390625 181.023438 264.003906 183.25 C 263.617188 185.476562 263.148438 187.683594 262.601562 189.878906 C 262.050781 192.070312 261.421875 194.238281 260.710938 196.382812 C 260.003906 198.53125 259.21875 200.644531 258.351562 202.734375 C 257.488281 204.820312 256.546875 206.875 255.53125 208.894531 C 254.511719 210.910156 253.425781 212.890625 252.261719 214.828125 C 251.101562 216.765625 249.867188 218.65625 248.566406 220.503906 C 247.265625 222.351562 245.898438 224.148438 244.460938 225.894531 C 243.027344 227.640625 241.53125 229.332031 239.972656 230.96875 C 238.414062 232.605469 236.796875 234.183594 235.121094 235.699219 C 233.449219 237.214844 231.71875 238.667969 229.9375 240.058594 C 228.15625 241.449219 226.324219 242.769531 224.445312 244.023438 C 222.566406 245.277344 220.640625 246.460938 218.675781 247.574219 C 216.707031 248.6875 214.703125 249.726562 212.660156 250.691406 C 210.617188 251.65625 208.539062 252.546875 206.429688 253.359375 C 204.320312 254.167969 202.1875 254.902344 200.023438 255.558594 C 197.859375 256.210938 195.675781 256.785156 193.472656 257.28125 C 191.265625 257.773438 189.046875 258.183594 186.808594 258.515625 C 184.574219 258.84375 182.328125 259.089844 180.074219 259.257812 C 177.820312 259.421875 175.566406 259.5 173.304688 259.5 Z M 173.304688 95.726562 C 171.933594 95.722656 170.5625 95.761719 169.195312 95.835938 C 167.824219 95.910156 166.457031 96.027344 165.09375 96.179688 C 163.730469 96.332031 162.375 96.527344 161.023438 96.757812 C 159.667969 96.988281 158.324219 97.261719 156.988281 97.570312 C 155.652344 97.878906 154.324219 98.222656 153.007812 98.609375 C 151.691406 98.992188 150.386719 99.414062 149.09375 99.875 C 147.800781 100.335938 146.523438 100.832031 145.261719 101.363281 C 143.996094 101.894531 142.746094 102.464844 141.515625 103.070312 C 140.285156 103.671875 139.070312 104.3125 137.875 104.984375 C 136.683594 105.660156 135.507812 106.367188 134.351562 107.109375 C 133.199219 107.851562 132.066406 108.625 130.957031 109.429688 C 129.847656 110.234375 128.761719 111.074219 127.699219 111.941406 C 126.636719 112.808594 125.601562 113.707031 124.589844 114.632812 C 123.578125 115.5625 122.597656 116.519531 121.640625 117.503906 C 120.683594 118.484375 119.757812 119.496094 118.859375 120.535156 C 117.960938 121.570312 117.09375 122.632812 116.257812 123.71875 C 115.421875 124.808594 114.617188 125.917969 113.84375 127.050781 C 113.070312 128.183594 112.328125 129.335938 111.621094 130.511719 C 110.914062 131.6875 110.242188 132.882812 109.601562 134.097656 C 108.964844 135.3125 108.359375 136.542969 107.792969 137.789062 C 107.222656 139.039062 106.691406 140.304688 106.195312 141.582031 C 105.703125 142.859375 105.242188 144.152344 104.820312 145.457031 C 104.398438 146.765625 104.015625 148.082031 103.667969 149.40625 C 103.324219 150.734375 103.015625 152.070312 102.746094 153.417969 C 102.476562 154.761719 102.246094 156.113281 102.054688 157.472656 C 101.859375 158.828125 101.707031 160.191406 101.59375 161.558594 C 101.480469 162.925781 101.40625 164.296875 101.371094 165.667969 C 101.335938 167.039062 101.339844 168.410156 101.382812 169.78125 C 101.425781 171.152344 101.507812 172.519531 101.628906 173.886719 C 101.75 175.253906 101.910156 176.613281 102.109375 177.972656 C 102.308594 179.328125 102.546875 180.679688 102.824219 182.023438 C 103.101562 183.367188 103.417969 184.699219 103.769531 186.027344 C 104.125 187.351562 104.515625 188.664062 104.945312 189.96875 C 105.371094 191.273438 105.839844 192.5625 106.339844 193.839844 C 106.84375 195.113281 107.382812 196.375 107.957031 197.621094 C 108.53125 198.867188 109.140625 200.09375 109.789062 201.304688 C 110.433594 202.515625 111.113281 203.707031 111.824219 204.878906 C 112.539062 206.050781 113.285156 207.199219 114.066406 208.328125 C 114.84375 209.457031 115.65625 210.5625 116.5 211.644531 C 117.34375 212.726562 118.214844 213.785156 119.121094 214.816406 C 120.023438 215.847656 120.953125 216.855469 121.917969 217.832031 C 122.878906 218.8125 123.867188 219.761719 124.882812 220.683594 C 125.898438 221.605469 126.9375 222.5 128.003906 223.359375 C 129.070312 224.222656 130.164062 225.054688 131.277344 225.855469 C 132.390625 226.652344 133.527344 227.421875 134.6875 228.15625 C 135.84375 228.890625 137.023438 229.59375 138.222656 230.257812 C 139.417969 230.925781 140.636719 231.558594 141.871094 232.15625 C 143.105469 232.753906 144.355469 233.316406 145.625 233.839844 C 146.890625 234.367188 148.171875 234.855469 149.46875 235.308594 C 150.761719 235.761719 152.070312 236.175781 153.386719 236.554688 C 154.707031 236.929688 156.035156 237.269531 157.375 237.570312 C 158.710938 237.871094 160.058594 238.136719 161.410156 238.359375 C 162.765625 238.585938 164.121094 238.769531 165.488281 238.914062 C 166.851562 239.0625 168.21875 239.167969 169.585938 239.238281 C 170.957031 239.304688 172.328125 239.332031 173.699219 239.324219 C 175.070312 239.3125 176.441406 239.261719 177.8125 239.171875 C 179.179688 239.085938 180.546875 238.957031 181.90625 238.789062 C 183.269531 238.621094 184.625 238.414062 185.972656 238.167969 C 187.324219 237.925781 188.664062 237.640625 190 237.320312 C 191.332031 236.996094 192.65625 236.636719 193.96875 236.238281 C 195.28125 235.839844 196.582031 235.40625 197.867188 234.933594 C 199.15625 234.460938 200.429688 233.953125 201.6875 233.40625 C 202.945312 232.863281 204.1875 232.28125 205.414062 231.664062 C 206.640625 231.046875 207.847656 230.398438 209.035156 229.710938 C 210.222656 229.027344 211.390625 228.304688 212.539062 227.554688 C 213.683594 226.800781 214.808594 226.015625 215.910156 225.199219 C 217.011719 224.382812 218.089844 223.535156 219.144531 222.65625 C 220.195312 221.777344 221.222656 220.867188 222.226562 219.929688 C 223.226562 218.992188 224.199219 218.027344 225.144531 217.035156 C 226.089844 216.039062 227.007812 215.019531 227.894531 213.972656 C 228.78125 212.929688 229.640625 211.859375 230.464844 210.761719 C 231.292969 209.667969 232.085938 208.550781 232.847656 207.410156 C 233.609375 206.269531 234.339844 205.105469 235.035156 203.925781 C 235.730469 202.742188 236.390625 201.539062 237.015625 200.320312 C 237.644531 199.097656 238.234375 197.863281 238.789062 196.609375 C 239.34375 195.355469 239.863281 194.085938 240.347656 192.800781 C 240.832031 191.515625 241.277344 190.21875 241.683594 188.910156 C 242.09375 187.601562 242.464844 186.28125 242.796875 184.949219 C 243.128906 183.621094 243.425781 182.28125 243.679688 180.933594 C 243.9375 179.585938 244.152344 178.230469 244.332031 176.871094 C 244.511719 175.511719 244.652344 174.148438 244.75 172.777344 C 244.851562 171.410156 244.914062 170.039062 244.933594 168.667969 C 244.957031 167.296875 244.9375 165.925781 244.882812 164.554688 C 244.824219 163.183594 244.730469 161.816406 244.59375 160.453125 C 244.457031 159.085938 244.285156 157.726562 244.070312 156.371094 C 243.859375 155.015625 243.605469 153.667969 243.316406 152.328125 C 243.027344 150.988281 242.699219 149.65625 242.332031 148.335938 C 241.964844 147.011719 241.558594 145.703125 241.117188 144.402344 C 240.675781 143.105469 240.199219 141.820312 239.683594 140.550781 C 239.167969 139.277344 238.617188 138.023438 238.027344 136.78125 C 237.441406 135.542969 236.820312 134.320312 236.160156 133.117188 C 235.503906 131.914062 234.8125 130.730469 234.085938 129.566406 C 233.363281 128.398438 232.605469 127.257812 231.8125 126.136719 C 231.023438 125.015625 230.199219 123.917969 229.347656 122.84375 C 228.492188 121.769531 227.609375 120.722656 226.695312 119.699219 C 225.78125 118.675781 224.839844 117.679688 223.867188 116.710938 C 220.546875 113.390625 216.9375 110.421875 213.035156 107.8125 C 209.128906 105.203125 205.007812 102.996094 200.671875 101.195312 C 196.335938 99.394531 191.863281 98.035156 187.257812 97.117188 C 182.652344 96.195312 178 95.734375 173.304688 95.726562 Z M 173.304688 95.726562 " fill-opacity="1" fill-rule="nonzero"/><g clip-path="url(#df4eb4680b)"><path fill="#545454" d="M 303.757812 308.089844 C 302.417969 308.085938 301.132812 307.824219 299.894531 307.308594 C 298.660156 306.789062 297.570312 306.058594 296.628906 305.105469 L 224.070312 232.601562 C 223.601562 232.128906 223.179688 231.621094 222.8125 231.066406 C 222.441406 230.515625 222.132812 229.933594 221.878906 229.316406 C 221.621094 228.703125 221.429688 228.070312 221.300781 227.417969 C 221.171875 226.769531 221.105469 226.109375 221.105469 225.445312 C 221.105469 224.78125 221.171875 224.125 221.300781 223.472656 C 221.429688 222.820312 221.621094 222.1875 221.878906 221.574219 C 222.132812 220.960938 222.441406 220.378906 222.8125 219.824219 C 223.179688 219.273438 223.601562 218.761719 224.070312 218.292969 C 224.539062 217.820312 225.050781 217.402344 225.605469 217.03125 C 226.15625 216.664062 226.738281 216.351562 227.351562 216.097656 C 227.96875 215.84375 228.597656 215.652344 229.25 215.523438 C 229.902344 215.390625 230.5625 215.328125 231.226562 215.328125 C 231.890625 215.328125 232.546875 215.390625 233.199219 215.523438 C 233.851562 215.652344 234.484375 215.84375 235.097656 216.097656 C 235.710938 216.351562 236.292969 216.664062 236.847656 217.03125 C 237.398438 217.402344 237.910156 217.820312 238.378906 218.292969 L 310.886719 290.847656 C 311.589844 291.554688 312.175781 292.347656 312.644531 293.230469 C 313.109375 294.109375 313.441406 295.039062 313.636719 296.015625 C 313.828125 296.996094 313.875 297.980469 313.777344 298.972656 C 313.679688 299.964844 313.441406 300.921875 313.058594 301.84375 C 312.679688 302.761719 312.171875 303.609375 311.542969 304.382812 C 310.910156 305.152344 310.179688 305.816406 309.351562 306.371094 C 308.527344 306.929688 307.636719 307.351562 306.683594 307.644531 C 305.730469 307.9375 304.753906 308.085938 303.757812 308.089844 Z M 303.757812 308.089844 " fill-opacity="1" fill-rule="nonzero"/></g></svg>