<svg xmlns="http://www.w3.org/2000/svg" xmlns:xlink="http://www.w3.org/1999/xlink" width="500" zoomAndPan="magnify" viewBox="0 0 375 374.999991" height="500" preserveAspectRatio="xMidYMid meet" version="1.0"><defs><clipPath id="e9cf8492af"><path d="M 136 279 L 242 279 L 242 299.273438 L 136 299.273438 Z M 136 279 " clip-rule="nonzero"/></clipPath><clipPath id="198c1c4db4"><path d="M 115.289062 71.273438 L 262.289062 71.273438 L 262.289062 291 L 115.289062 291 Z M 115.289062 71.273438 " clip-rule="nonzero"/></clipPath><clipPath id="7c60678ee9"><path d="M 136 279 L 242 279 L 242 299.273438 L 136 299.273438 Z M 136 279 " clip-rule="nonzero"/></clipPath><clipPath id="f54948b253"><path d="M 115.289062 71.273438 L 262.289062 71.273438 L 262.289062 291 L 115.289062 291 Z M 115.289062 71.273438 " clip-rule="nonzero"/></clipPath></defs><rect x="-37.5" width="450" fill="#ffffff" y="-37.499999" height="449.999989" fill-opacity="1"/><rect x="-37.5" width="450" fill="#ffffff" y="-37.499999" height="449.999989" fill-opacity="1"/><g clip-path="url(#e9cf8492af)"><path fill="#cccccc" d="M 188.945312 279.40625 C 159.957031 279.40625 136.464844 283.816406 136.464844 289.222656 C 136.464844 294.628906 159.957031 299.035156 188.945312 299.035156 C 217.9375 299.035156 241.429688 294.628906 241.429688 289.222656 C 241.429688 283.769531 217.9375 279.40625 188.945312 279.40625 Z M 188.945312 291.949219 C 180.8125 291.949219 174.269531 290.722656 174.269531 289.222656 C 174.269531 287.722656 180.859375 286.496094 188.945312 286.496094 C 197.082031 286.496094 203.625 287.722656 203.625 289.222656 C 203.625 290.722656 197.082031 291.949219 188.945312 291.949219 Z M 188.945312 291.949219 " fill-opacity="1" fill-rule="nonzero"/></g><g clip-path="url(#198c1c4db4)"><path fill="#faa82c" d="M 257.199219 115.230469 C 253.742188 106.917969 248.65625 99.28125 242.292969 92.832031 C 235.976562 86.421875 228.433594 81.199219 220.164062 77.609375 C 211.304688 73.746094 201.625 72.109375 191.992188 71.792969 C 181.992188 71.472656 171.90625 72.429688 162.410156 75.746094 C 153.867188 78.742188 145.960938 83.425781 139.144531 89.421875 C 132.375 95.375 126.785156 102.644531 122.742188 110.6875 C 118.605469 119.050781 116.105469 128.136719 115.46875 137.40625 C 115.332031 139.089844 115.289062 140.769531 115.289062 142.449219 C 115.289062 163.671875 127.328125 182.164062 137.417969 200.023438 C 143.097656 210.066406 148.777344 220.109375 154.503906 230.148438 C 160.5 240.691406 166.5 251.28125 172.453125 261.820312 C 176.859375 269.546875 181.222656 277.316406 185.628906 285.042969 C 186.71875 286.996094 187.855469 288.949219 188.945312 290.902344 C 190.035156 288.949219 191.171875 286.996094 192.261719 285.042969 C 196.671875 277.316406 201.035156 269.546875 205.441406 261.820312 C 211.4375 251.28125 217.4375 240.691406 223.390625 230.148438 C 229.070312 220.109375 234.75 210.066406 240.476562 200.023438 C 250.5625 182.210938 262.605469 163.714844 262.605469 142.449219 C 262.605469 133.136719 260.785156 123.867188 257.199219 115.230469 Z M 188.945312 188.574219 C 164.679688 188.574219 144.960938 168.898438 144.960938 144.585938 C 144.960938 120.320312 164.636719 100.601562 188.945312 100.601562 C 213.210938 100.601562 232.933594 120.277344 232.933594 144.585938 C 232.933594 168.898438 213.210938 188.574219 188.945312 188.574219 Z M 188.945312 188.574219 " fill-opacity="1" fill-rule="nonzero"/></g><g clip-path="url(#7c60678ee9)"><path fill="#cccccc" d="M 188.945312 279.40625 C 159.957031 279.40625 136.464844 283.816406 136.464844 289.222656 C 136.464844 294.628906 159.957031 299.035156 188.945312 299.035156 C 217.9375 299.035156 241.429688 294.628906 241.429688 289.222656 C 241.429688 283.769531 217.9375 279.40625 188.945312 279.40625 Z M 188.945312 291.949219 C 180.8125 291.949219 174.269531 290.722656 174.269531 289.222656 C 174.269531 287.722656 180.859375 286.496094 188.945312 286.496094 C 197.082031 286.496094 203.625 287.722656 203.625 289.222656 C 203.625 290.722656 197.082031 291.949219 188.945312 291.949219 Z M 188.945312 291.949219 " fill-opacity="1" fill-rule="nonzero"/></g><g clip-path="url(#f54948b253)"><path fill="#faa82c" d="M 257.199219 115.230469 C 253.742188 106.917969 248.65625 99.28125 242.292969 92.832031 C 235.976562 86.421875 228.433594 81.199219 220.164062 77.609375 C 211.304688 73.746094 201.625 72.109375 191.992188 71.792969 C 181.992188 71.472656 171.90625 72.429688 162.410156 75.746094 C 153.867188 78.742188 145.960938 83.425781 139.144531 89.421875 C 132.375 95.375 126.785156 102.644531 122.742188 110.6875 C 118.605469 119.050781 116.105469 128.136719 115.46875 137.40625 C 115.332031 139.089844 115.289062 140.769531 115.289062 142.449219 C 115.289062 163.671875 127.328125 182.164062 137.417969 200.023438 C 143.097656 210.066406 148.777344 220.109375 154.503906 230.148438 C 160.5 240.691406 166.5 251.28125 172.453125 261.820312 C 176.859375 269.546875 181.222656 277.316406 185.628906 285.042969 C 186.71875 286.996094 187.855469 288.949219 188.945312 290.902344 C 190.035156 288.949219 191.171875 286.996094 192.261719 285.042969 C 196.671875 277.316406 201.035156 269.546875 205.441406 261.820312 C 211.4375 251.28125 217.4375 240.691406 223.390625 230.148438 C 229.070312 220.109375 234.75 210.066406 240.476562 200.023438 C 250.5625 182.210938 262.605469 163.714844 262.605469 142.449219 C 262.605469 133.136719 260.785156 123.867188 257.199219 115.230469 Z M 188.945312 188.574219 C 164.679688 188.574219 144.960938 168.898438 144.960938 144.585938 C 144.960938 120.320312 164.636719 100.601562 188.945312 100.601562 C 213.210938 100.601562 232.933594 120.277344 232.933594 144.585938 C 232.933594 168.898438 213.210938 188.574219 188.945312 188.574219 Z M 188.945312 188.574219 " fill-opacity="1" fill-rule="nonzero"/></g></svg>