<svg xmlns="http://www.w3.org/2000/svg" xmlns:xlink="http://www.w3.org/1999/xlink" width="500" zoomAndPan="magnify" viewBox="0 0 375 374.999991" height="500" preserveAspectRatio="xMidYMid meet" version="1.0"><defs><clipPath id="92a82b198f"><path d="M 72.394531 65.9375 L 300.394531 65.9375 L 300.394531 293.9375 L 72.394531 293.9375 Z M 72.394531 65.9375 " clip-rule="nonzero"/></clipPath></defs><rect x="-37.5" width="450" fill="#ffffff" y="-37.499999" height="449.999989" fill-opacity="1"/><rect x="-37.5" width="450" fill="#ffffff" y="-37.499999" height="449.999989" fill-opacity="1"/><g clip-path="url(#92a82b198f)"><path fill="#ffe6c0" d="M 267.128906 99.347656 C 245.585938 77.800781 216.9375 65.9375 186.46875 65.9375 C 155.996094 65.9375 127.351562 77.800781 105.804688 99.347656 C 84.257812 120.894531 72.394531 149.539062 72.394531 180.011719 C 72.394531 210.480469 84.257812 239.128906 105.804688 260.671875 C 127.351562 282.21875 155.996094 294.085938 186.46875 294.085938 C 216.9375 294.085938 245.585938 282.21875 267.128906 260.671875 C 288.675781 239.128906 300.542969 210.480469 300.542969 180.011719 C 300.542969 149.539062 288.675781 120.894531 267.128906 99.347656 Z M 110.980469 104.523438 C 131.144531 84.363281 157.953125 73.257812 186.46875 73.257812 C 214.984375 73.257812 241.792969 84.363281 261.953125 104.523438 C 282.117188 124.6875 293.222656 151.496094 293.222656 180.011719 C 293.222656 203.714844 285.542969 226.238281 271.367188 244.746094 C 260.089844 228.972656 242.078125 219.65625 222.519531 219.65625 L 150.414062 219.65625 C 130.855469 219.65625 112.84375 228.972656 101.566406 244.746094 C 87.394531 226.238281 79.714844 203.714844 79.714844 180.011719 C 79.714844 151.496094 90.816406 124.6875 110.980469 104.523438 Z M 186.46875 213.644531 C 215.777344 213.644531 239.621094 189.796875 239.621094 160.488281 C 239.621094 131.179688 215.777344 107.335938 186.46875 107.335938 C 157.160156 107.335938 133.316406 131.179688 133.316406 160.488281 C 133.316406 189.796875 157.160156 213.644531 186.46875 213.644531 Z M 186.46875 213.644531 " fill-opacity="1" fill-rule="nonzero"/></g></svg>