<svg xmlns="http://www.w3.org/2000/svg" xmlns:xlink="http://www.w3.org/1999/xlink" width="500" zoomAndPan="magnify" viewBox="0 0 375 374.999991" height="500" preserveAspectRatio="xMidYMid meet" version="1.0"><defs><clipPath id="ebc58e6620"><path d="M 58 163.546875 L 345 163.546875 L 345 215 L 58 215 Z M 58 163.546875 " clip-rule="nonzero"/></clipPath><clipPath id="7622f7b64a"><path d="M 84.984375 164.097656 C 85.535156 163.546875 86.632812 163.546875 87.183594 164.097656 L 92.683594 181.695312 C 93.234375 182.242188 93.234375 182.242188 93.785156 182.242188 L 112.480469 182.242188 C 113.582031 182.242188 114.132812 183.34375 113.03125 183.894531 L 98.183594 194.894531 C 97.632812 195.441406 97.632812 195.441406 97.632812 195.992188 L 103.132812 213.589844 C 103.683594 214.691406 102.582031 215.242188 102.03125 214.691406 L 86.632812 203.691406 C 86.085938 203.691406 86.085938 203.691406 85.535156 203.691406 L 70.136719 214.691406 C 69.585938 215.242188 68.484375 214.691406 69.035156 213.589844 L 74.535156 195.992188 C 74.535156 195.441406 74.535156 195.441406 73.984375 194.894531 L 59.136719 183.894531 C 58.035156 183.34375 58.585938 182.242188 59.6875 182.242188 L 78.386719 182.242188 C 78.933594 182.242188 78.933594 182.242188 79.484375 181.695312 Z M 142.726562 164.097656 C 143.277344 163.546875 144.378906 163.546875 144.929688 164.097656 L 150.425781 181.695312 C 150.976562 182.242188 150.976562 182.242188 151.527344 182.242188 L 170.226562 182.242188 C 171.324219 182.242188 171.875 183.34375 170.777344 183.894531 L 155.925781 194.894531 C 155.378906 195.441406 155.378906 195.441406 155.378906 195.992188 L 160.875 213.589844 C 161.425781 214.691406 160.328125 215.242188 159.777344 214.691406 L 144.378906 203.691406 C 143.828125 203.691406 143.828125 203.691406 143.277344 203.691406 L 127.878906 214.691406 C 127.328125 215.242188 126.230469 214.691406 126.78125 213.589844 L 132.28125 195.992188 C 132.28125 195.441406 132.28125 195.441406 131.730469 194.894531 L 116.882812 183.894531 C 115.78125 183.34375 116.332031 182.242188 117.429688 182.242188 L 136.128906 182.242188 C 136.679688 182.242188 136.679688 182.242188 137.230469 181.695312 Z M 200.472656 164.097656 C 201.023438 163.546875 202.121094 163.546875 202.671875 164.097656 L 208.171875 181.695312 C 208.722656 182.242188 208.722656 182.242188 209.273438 182.242188 L 227.96875 182.242188 C 229.070312 182.242188 229.621094 183.34375 228.519531 183.894531 L 213.671875 194.894531 C 213.121094 195.441406 213.121094 195.441406 213.121094 195.992188 L 218.621094 213.589844 C 219.171875 214.691406 218.070312 215.242188 217.519531 214.691406 L 202.121094 203.691406 C 201.574219 203.691406 201.574219 203.691406 201.023438 203.691406 L 185.625 214.691406 C 185.074219 215.242188 183.972656 214.691406 184.523438 213.589844 L 190.023438 195.992188 C 190.023438 195.441406 190.023438 195.441406 189.472656 194.894531 L 174.625 183.894531 C 173.523438 183.34375 174.074219 182.242188 175.175781 182.242188 L 193.875 182.242188 C 194.421875 182.242188 194.421875 182.242188 194.972656 181.695312 Z M 258.214844 164.097656 C 258.765625 163.546875 259.867188 163.546875 260.417969 164.097656 L 265.914062 181.695312 C 266.464844 182.242188 266.464844 182.242188 267.015625 182.242188 L 285.714844 182.242188 C 286.8125 182.242188 287.363281 183.34375 286.265625 183.894531 L 271.414062 194.894531 C 270.867188 195.441406 270.867188 195.441406 270.867188 195.992188 L 276.363281 213.589844 C 276.914062 214.691406 275.816406 215.242188 275.265625 214.691406 L 259.867188 203.691406 C 259.316406 203.691406 259.316406 203.691406 258.765625 203.691406 L 243.367188 214.691406 C 242.816406 215.242188 241.71875 214.691406 242.269531 213.589844 L 247.769531 195.992188 C 247.769531 195.441406 247.769531 195.441406 247.21875 194.894531 L 232.371094 183.894531 C 231.269531 183.34375 231.820312 182.242188 232.917969 182.242188 L 251.617188 182.242188 C 252.167969 182.242188 252.167969 182.242188 252.71875 181.695312 Z M 315.960938 164.097656 C 316.511719 163.546875 317.609375 163.546875 318.160156 164.097656 L 323.660156 181.695312 C 324.210938 182.242188 324.210938 182.242188 324.761719 182.242188 L 343.457031 182.242188 C 344.558594 182.242188 345.109375 183.34375 344.007812 183.894531 L 329.160156 194.894531 C 328.609375 195.441406 328.609375 195.441406 328.609375 195.992188 L 334.109375 213.589844 C 334.660156 214.691406 333.558594 215.242188 333.007812 214.691406 L 317.609375 203.691406 C 317.0625 203.691406 317.0625 203.691406 316.511719 203.691406 L 301.113281 214.691406 C 300.5625 215.242188 299.460938 214.691406 300.011719 213.589844 L 305.511719 195.992188 C 305.511719 195.441406 305.511719 195.441406 304.960938 194.894531 L 290.113281 183.894531 C 289.011719 183.34375 289.5625 182.242188 290.664062 182.242188 L 309.363281 182.242188 C 309.910156 182.242188 309.910156 182.242188 310.460938 181.695312 Z M 315.960938 164.097656 " clip-rule="nonzero"/></clipPath></defs><rect x="-37.5" width="450" fill="#ffffff" y="-37.499999" height="449.999989" fill-opacity="1"/><rect x="-37.5" width="450" fill="#ffffff" y="-37.499999" height="449.999989" fill-opacity="1"/><g clip-path="url(#ebc58e6620)"><g clip-path="url(#7622f7b64a)"><path fill="#faa82c" d="M 58.585938 163.546875 L 344.5 163.546875 L 344.5 214.875 L 58.585938 214.875 Z M 58.585938 163.546875 " fill-opacity="1" fill-rule="nonzero"/></g></g></svg>