<svg xmlns="http://www.w3.org/2000/svg" xmlns:xlink="http://www.w3.org/1999/xlink" width="500" zoomAndPan="magnify" viewBox="0 0 375 374.999991" height="500" preserveAspectRatio="xMidYMid meet" version="1.0"><defs><clipPath id="8b037ea9c0"><path d="M 57 152.625 L 228 152.625 L 228 204 L 57 204 Z M 57 152.625 " clip-rule="nonzero"/></clipPath><clipPath id="d8b792deea"><path d="M 83.484375 153.171875 C 84.035156 152.625 85.136719 152.625 85.683594 153.171875 L 91.183594 170.773438 C 91.734375 171.320312 91.734375 171.320312 92.285156 171.320312 L 110.984375 171.320312 C 112.082031 171.320312 112.632812 172.421875 111.53125 172.972656 L 96.683594 183.96875 C 96.132812 184.519531 96.132812 184.519531 96.132812 185.070312 L 101.632812 202.667969 C 102.183594 203.769531 101.082031 204.316406 100.535156 203.769531 L 85.136719 192.769531 C 84.585938 192.769531 84.585938 192.769531 84.035156 192.769531 L 68.636719 203.769531 C 68.085938 204.316406 66.988281 203.769531 67.535156 202.667969 L 73.035156 185.070312 C 73.035156 184.519531 73.035156 184.519531 72.488281 183.96875 L 57.636719 172.972656 C 56.539062 172.421875 57.089844 171.320312 58.1875 171.320312 L 76.886719 171.320312 C 77.4375 171.320312 77.4375 171.320312 77.984375 170.773438 Z M 141.230469 153.171875 C 141.78125 152.625 142.878906 152.625 143.429688 153.171875 L 148.929688 170.773438 C 149.480469 171.320312 149.480469 171.320312 150.027344 171.320312 L 168.726562 171.320312 C 169.828125 171.320312 170.375 172.421875 169.277344 172.972656 L 154.429688 183.96875 C 153.878906 184.519531 153.878906 184.519531 153.878906 185.070312 L 159.378906 202.667969 C 159.925781 203.769531 158.828125 204.316406 158.277344 203.769531 L 142.878906 192.769531 C 142.328125 192.769531 142.328125 192.769531 141.78125 192.769531 L 126.382812 203.769531 C 125.832031 204.316406 124.730469 203.769531 125.28125 202.667969 L 130.78125 185.070312 C 130.78125 184.519531 130.78125 184.519531 130.230469 183.96875 L 115.382812 172.972656 C 114.28125 172.421875 114.832031 171.320312 115.933594 171.320312 L 134.628906 171.320312 C 135.179688 171.320312 135.179688 171.320312 135.730469 170.773438 Z M 198.972656 153.171875 C 199.523438 152.625 200.625 152.625 201.171875 153.171875 L 206.671875 170.773438 C 207.222656 171.320312 207.222656 171.320312 207.773438 171.320312 L 226.472656 171.320312 C 227.570312 171.320312 228.121094 172.421875 227.019531 172.972656 L 212.171875 183.96875 C 211.621094 184.519531 211.621094 184.519531 211.621094 185.070312 L 217.121094 202.667969 C 217.671875 203.769531 216.570312 204.316406 216.023438 203.769531 L 200.625 192.769531 C 200.074219 192.769531 200.074219 192.769531 199.523438 192.769531 L 184.125 203.769531 C 183.574219 204.316406 182.476562 203.769531 183.023438 202.667969 L 188.523438 185.070312 C 188.523438 184.519531 188.523438 184.519531 187.976562 183.96875 L 173.125 172.972656 C 172.027344 172.421875 172.578125 171.320312 173.675781 171.320312 L 192.375 171.320312 C 192.925781 171.320312 192.925781 171.320312 193.472656 170.773438 Z M 198.972656 153.171875 " clip-rule="nonzero"/></clipPath><clipPath id="92486c3d78"><path d="M 230 152.625 L 343 152.625 L 343 204 L 230 204 Z M 230 152.625 " clip-rule="nonzero"/></clipPath><clipPath id="e115639cb1"><path d="M 256.71875 153.171875 C 257.269531 152.625 258.367188 152.625 258.917969 153.171875 L 264.417969 170.773438 C 264.96875 171.320312 264.96875 171.320312 265.515625 171.320312 L 284.214844 171.320312 C 285.316406 171.320312 285.863281 172.421875 284.765625 172.972656 L 269.917969 183.96875 C 269.367188 184.519531 269.367188 184.519531 269.367188 185.070312 L 274.867188 202.667969 C 275.414062 203.769531 274.316406 204.316406 273.765625 203.769531 L 258.367188 192.769531 C 257.816406 192.769531 257.816406 192.769531 257.269531 192.769531 L 241.871094 203.769531 C 241.320312 204.316406 240.21875 203.769531 240.769531 202.667969 L 246.269531 185.070312 C 246.269531 184.519531 246.269531 184.519531 245.71875 183.96875 L 230.871094 172.972656 C 229.769531 172.421875 230.320312 171.320312 231.421875 171.320312 L 250.117188 171.320312 C 250.667969 171.320312 250.667969 171.320312 251.21875 170.773438 Z M 314.460938 153.171875 C 315.011719 152.625 316.113281 152.625 316.660156 153.171875 L 322.160156 170.773438 C 322.710938 171.320312 322.710938 171.320312 323.261719 171.320312 L 341.960938 171.320312 C 343.058594 171.320312 343.609375 172.421875 342.507812 172.972656 L 327.660156 183.96875 C 327.109375 184.519531 327.109375 184.519531 327.109375 185.070312 L 332.609375 202.667969 C 333.160156 203.769531 332.058594 204.316406 331.511719 203.769531 L 316.113281 192.769531 C 315.5625 192.769531 315.5625 192.769531 315.011719 192.769531 L 299.613281 203.769531 C 299.0625 204.316406 297.964844 203.769531 298.511719 202.667969 L 304.011719 185.070312 C 304.011719 184.519531 304.011719 184.519531 303.464844 183.96875 L 288.613281 172.972656 C 287.515625 172.421875 288.066406 171.320312 289.164062 171.320312 L 307.863281 171.320312 C 308.414062 171.320312 308.414062 171.320312 308.960938 170.773438 Z M 314.460938 153.171875 " clip-rule="nonzero"/></clipPath></defs><rect x="-37.5" width="450" fill="#ffffff" y="-37.499999" height="449.999989" fill-opacity="1"/><rect x="-37.5" width="450" fill="#ffffff" y="-37.499999" height="449.999989" fill-opacity="1"/><g clip-path="url(#8b037ea9c0)"><g clip-path="url(#d8b792deea)"><path fill="#faa82c" d="M 57.089844 152.625 L 343 152.625 L 343 203.953125 L 57.089844 203.953125 Z M 57.089844 152.625 " fill-opacity="1" fill-rule="nonzero"/></g></g><g clip-path="url(#92486c3d78)"><g clip-path="url(#e115639cb1)"><path fill="#494f56" d="M 57.089844 152.625 L 343 152.625 L 343 203.953125 L 57.089844 203.953125 Z M 57.089844 152.625 " fill-opacity="1" fill-rule="nonzero"/></g></g></svg>