<svg xmlns="http://www.w3.org/2000/svg" xmlns:xlink="http://www.w3.org/1999/xlink" width="500" zoomAndPan="magnify" viewBox="0 0 375 374.999991" height="500" preserveAspectRatio="xMidYMid meet" version="1.0"><defs><clipPath id="ceff145e83"><path d="M 63 150.601562 L 292 150.601562 L 292 202 L 63 202 Z M 63 150.601562 " clip-rule="nonzero"/></clipPath><clipPath id="dd7e3d72dc"><path d="M 89.777344 151.152344 C 90.328125 150.601562 91.429688 150.601562 91.976562 151.152344 L 97.476562 168.75 C 98.027344 169.300781 98.027344 169.300781 98.578125 169.300781 L 117.273438 169.300781 C 118.375 169.300781 118.925781 170.398438 117.824219 170.949219 L 102.976562 181.949219 C 102.425781 182.5 102.425781 182.5 102.425781 183.046875 L 107.925781 200.644531 C 108.476562 201.746094 107.375 202.296875 106.828125 201.746094 L 91.429688 190.746094 C 90.878906 190.746094 90.878906 190.746094 90.328125 190.746094 L 74.929688 201.746094 C 74.378906 202.296875 73.28125 201.746094 73.828125 200.644531 L 79.328125 183.046875 C 79.328125 182.5 79.328125 182.5 78.777344 181.949219 L 63.929688 170.949219 C 62.832031 170.398438 63.378906 169.300781 64.480469 169.300781 L 83.179688 169.300781 C 83.730469 169.300781 83.730469 169.300781 84.277344 168.75 Z M 147.523438 151.152344 C 148.070312 150.601562 149.171875 150.601562 149.722656 151.152344 L 155.222656 168.75 C 155.769531 169.300781 155.769531 169.300781 156.320312 169.300781 L 175.019531 169.300781 C 176.121094 169.300781 176.667969 170.398438 175.570312 170.949219 L 160.722656 181.949219 C 160.171875 182.5 160.171875 182.5 160.171875 183.046875 L 165.671875 200.644531 C 166.21875 201.746094 165.121094 202.296875 164.570312 201.746094 L 149.171875 190.746094 C 148.621094 190.746094 148.621094 190.746094 148.070312 190.746094 L 132.671875 201.746094 C 132.125 202.296875 131.023438 201.746094 131.574219 200.644531 L 137.074219 183.046875 C 137.074219 182.5 137.074219 182.5 136.523438 181.949219 L 121.675781 170.949219 C 120.574219 170.398438 121.125 169.300781 122.226562 169.300781 L 140.921875 169.300781 C 141.472656 169.300781 141.472656 169.300781 142.023438 168.75 Z M 205.265625 151.152344 C 205.816406 150.601562 206.917969 150.601562 207.464844 151.152344 L 212.964844 168.75 C 213.515625 169.300781 213.515625 169.300781 214.066406 169.300781 L 232.761719 169.300781 C 233.863281 169.300781 234.414062 170.398438 233.3125 170.949219 L 218.464844 181.949219 C 217.914062 182.5 217.914062 182.5 217.914062 183.046875 L 223.414062 200.644531 C 223.964844 201.746094 222.863281 202.296875 222.316406 201.746094 L 206.917969 190.746094 C 206.367188 190.746094 206.367188 190.746094 205.816406 190.746094 L 190.417969 201.746094 C 189.867188 202.296875 188.769531 201.746094 189.316406 200.644531 L 194.816406 183.046875 C 194.816406 182.5 194.816406 182.5 194.265625 181.949219 L 179.417969 170.949219 C 178.320312 170.398438 178.867188 169.300781 179.96875 169.300781 L 198.667969 169.300781 C 199.21875 169.300781 199.21875 169.300781 199.765625 168.75 Z M 263.011719 151.152344 C 263.558594 150.601562 264.660156 150.601562 265.210938 151.152344 L 270.710938 168.75 C 271.257812 169.300781 271.257812 169.300781 271.808594 169.300781 L 290.507812 169.300781 C 291.609375 169.300781 292.15625 170.398438 291.058594 170.949219 L 276.210938 181.949219 C 275.660156 182.5 275.660156 182.5 275.660156 183.046875 L 281.160156 200.644531 C 281.707031 201.746094 280.609375 202.296875 280.058594 201.746094 L 264.660156 190.746094 C 264.109375 190.746094 264.109375 190.746094 263.558594 190.746094 L 248.160156 201.746094 C 247.613281 202.296875 246.511719 201.746094 247.0625 200.644531 L 252.5625 183.046875 C 252.5625 182.5 252.5625 182.5 252.011719 181.949219 L 237.164062 170.949219 C 236.0625 170.398438 236.613281 169.300781 237.714844 169.300781 L 256.410156 169.300781 C 256.960938 169.300781 256.960938 169.300781 257.511719 168.75 Z M 263.011719 151.152344 " clip-rule="nonzero"/></clipPath><clipPath id="9420753cee"><path d="M 294 150.601562 L 350 150.601562 L 350 202 L 294 202 Z M 294 150.601562 " clip-rule="nonzero"/></clipPath><clipPath id="73d63d73df"><path d="M 320.753906 151.152344 C 321.304688 150.601562 322.40625 150.601562 322.953125 151.152344 L 328.453125 168.75 C 329.003906 169.300781 329.003906 169.300781 329.554688 169.300781 L 348.25 169.300781 C 349.351562 169.300781 349.902344 170.398438 348.800781 170.949219 L 333.953125 181.949219 C 333.402344 182.5 333.402344 182.5 333.402344 183.046875 L 338.902344 200.644531 C 339.453125 201.746094 338.351562 202.296875 337.804688 201.746094 L 322.40625 190.746094 C 321.855469 190.746094 321.855469 190.746094 321.304688 190.746094 L 305.90625 201.746094 C 305.355469 202.296875 304.257812 201.746094 304.804688 200.644531 L 310.304688 183.046875 C 310.304688 182.5 310.304688 182.5 309.753906 181.949219 L 294.90625 170.949219 C 293.808594 170.398438 294.355469 169.300781 295.457031 169.300781 L 314.15625 169.300781 C 314.707031 169.300781 314.707031 169.300781 315.253906 168.75 Z M 320.753906 151.152344 " clip-rule="nonzero"/></clipPath></defs><rect x="-37.5" width="450" fill="#ffffff" y="-37.499999" height="449.999989" fill-opacity="1"/><rect x="-37.5" width="450" fill="#ffffff" y="-37.499999" height="449.999989" fill-opacity="1"/><g clip-path="url(#ceff145e83)"><g clip-path="url(#dd7e3d72dc)"><path fill="#faa82c" d="M 63.378906 150.601562 L 349.292969 150.601562 L 349.292969 201.929688 L 63.378906 201.929688 Z M 63.378906 150.601562 " fill-opacity="1" fill-rule="nonzero"/></g></g><g clip-path="url(#9420753cee)"><g clip-path="url(#73d63d73df)"><path fill="#494f56" d="M 63.378906 150.601562 L 349.292969 150.601562 L 349.292969 201.929688 L 63.378906 201.929688 Z M 63.378906 150.601562 " fill-opacity="1" fill-rule="nonzero"/></g></g></svg>